When a young street vendor with a grim home life meets a woman on her way to Paris, they forge an instant connection. He changes all the clocks in Taipei to French time; as he watches François Truffaut's 'Les 400 Coups,' she has a strange encounter with its now-aging star, Jean-Pierre Leaud.

______________________________________


General
Complete name : What.Time.Is.It.There.2001.DVDRip.x264.mkv
Format : Matroska
Format version : Version 2
File size : 1.47 GiB
Duration : 1h 50mn
Overall bit rate : 1 898 Kbps
Writing application : HandBrake 0.9.6
Writing library : libmkv 0.6.5

Video
ID : 1
Format : AVC
Format/Info : Advanced Video Codec
Format profile : High@L3.1
Format settings, CABAC : Yes
Format settings, ReFrames : 9 frames
Codec ID : V_MPEG4/ISO/AVC
Duration : 1h 50mn
Bit rate : 1 412 Kbps
Width : 702 pixels
Height : 550 pixels
Display aspect ratio : 16:9
Frame rate : 25.000 fps
Color space : YUV
Chroma subsampling : 4:2:0
Bit depth : 8 bits
Scan type : Progressive
Bits/(Pixel*Frame) : 0.146
Stream size : 1.09 GiB (74%)
Writing library : x264 core 120
Encoding settings : cabac=1 / ref=9 / deblock=1:-2:-2 / analyse=0x3:0x133 / me=umh / subme=9 / psy=1 / psy_rd=1.00:0.00 / mixed_ref=1 / me_range=24 / chroma_me=1 / trellis=2 / 8x8dct=1 / cqm=0 / deadzone=21,11 / fast_pskip=0 / chroma_qp_offset=-2 / threads=6 / sliced_threads=0 / nr=0 / decimate=1 / interlaced=0 / bluray_compat=0 / constrained_intra=0 / bframes=6 / b_pyramid=2 / b_adapt=2 / b_bias=0 / direct=3 / weightb=1 / open_gop=0 / weightp=2 / keyint=250 / keyint_min=25 / scenecut=40 / intra_refresh=0 / rc_lookahead=50 / rc=crf / mbtree=1 / crf=17.0 / qcomp=0.60 / qpmin=3 / qpmax=69 / qpstep=4 / ip_ratio=1.40 / aq=1:1.20
Language : English
Default : Yes
Forced : No
Color primaries : BT.601-6 525, BT.1358 525, BT.1700 NTSC, SMPTE 170M
Transfer characteristics : BT.709-5, BT.1361
Matrix coefficients : BT.601-6 525, BT.1358 525, BT.1700 NTSC, SMPTE 170M

Audio
ID : 2
Format : AC-3
Format/Info : Audio Coding 3
Mode extension : CM (complete main)
Codec ID : A_AC3
Duration : 1h 50mn
Bit rate mode : Constant
Bit rate : 448 Kbps
Channel(s) : 6 channels
Channel positions : Front: L C R, Side: L R, LFE
Sampling rate : 48.0 KHz
Bit depth : 16 bits
Compression mode : Lossy
Stream size : 354 MiB (24%)
Language : Chinese
Default : Yes
Forced : No

Text #1
ID : 3
Format : VobSub
Codec ID : S_VOBSUB
Codec ID/Info : The same subtitle format used on DVDs
Language : English
Default : Yes
Forced : No

Text #2
ID : 4
Format : VobSub
Codec ID : S_VOBSUB
Codec ID/Info : The same subtitle format used on DVDs
Language : French
Default : No
Forced : No

Text #3
ID : 5
Format : VobSub
Codec ID : S_VOBSUB
Codec ID/Info : The same subtitle format used on DVDs
Language : German
Default : No
Forced : No